# Blender v2.93.5 OBJ File: 'board.blend'
# www.blender.org
mtllib boardbase.mtl
o Cube
v 20.000000 -0.000000 -35.000000
v 20.000000 -0.400000 -35.000000
v 20.000000 -0.000000 35.000000
v 20.000000 -0.400000 35.000000
v -20.000000 -0.000000 -35.000000
v -20.000000 -0.400000 -35.000000
v -20.000000 -0.000000 35.000000
v -20.000000 -0.400000 35.000000
vt 0.041811 0.057388
vt 0.929955 0.936809
vt 0.037422 0.934743
vt 0.962795 0.005933
vt 0.971063 0.998998
vt 0.925133 0.054117
vt 0.002110 0.008890
vt 0.999929 0.996058
vt 0.996622 0.005933
vt 0.001725 0.991333
vn 0.0000 1.0000 0.0000
vn 0.0000 0.0000 1.0000
vn -1.0000 0.0000 0.0000
vn 0.0000 -1.0000 0.0000
vn 1.0000 0.0000 0.0000
vn 0.0000 0.0000 -1.0000
usemtl BoardBase
s off
f 5/1/1 3/2/1 1/3/1
f 3/2/2 8/4/2 4/5/2
f 7/6/3 6/7/3 8/4/3
f 2/8/4 8/4/4 6/9/4
f 1/3/5 4/5/5 2/10/5
f 5/1/6 2/10/6 6/7/6
f 5/1/1 7/6/1 3/2/1
f 3/2/2 7/6/2 8/4/2
f 7/6/3 5/1/3 6/7/3
f 2/8/4 4/5/4 8/4/4
f 1/3/5 3/2/5 4/5/5
f 5/1/6 1/3/6 2/10/6
o Cube.002
v 18.000000 0.000000 30.000000
v 18.000000 4.000000 30.000000
v 18.000000 0.000000 -30.000000
v 18.000000 4.000000 -30.000000
v 20.000000 0.000000 30.000000
v 20.000000 4.000000 30.000000
v 20.000000 0.000000 -30.000000
v 20.000000 4.000000 -30.000000
v -20.000000 0.000000 30.000000
v -20.000000 4.000000 30.000000
v -20.000000 0.000000 -30.000000
v -20.000000 4.000000 -30.000000
v -18.000000 0.000000 30.000000
v -18.000000 4.000000 30.000000
v -18.000000 0.000000 -30.000000
v -18.000000 4.000000 -30.000000
v 19.999998 0.000000 35.000000
v 19.999998 4.000000 35.000000
v -20.000000 0.000000 35.000004
v -20.000000 4.000000 35.000004
v 19.999998 0.000000 30.000000
v 19.999998 4.000000 30.000000
v -20.000000 0.000000 30.000004
v -20.000000 4.000000 30.000004
v 19.999998 0.000000 -30.000004
v 19.999998 4.000000 -30.000004
v -20.000000 0.000000 -30.000000
v -20.000000 4.000000 -30.000000
v 19.999998 0.000000 -35.000004
v 19.999998 4.000000 -35.000004
v -20.000000 0.000000 -35.000000
v -20.000000 4.000000 -35.000000
v -18.000000 0.000000 -14.000000
v -18.000000 4.000000 -14.000000
v -18.000000 0.000000 -30.000000
v -18.000000 4.000000 -30.000000
v -14.800003 0.000000 -14.000000
v -14.800003 4.000000 -14.000000
v -14.800003 0.000000 -30.000000
v -14.800003 4.000000 -30.000000
vt 0.625000 0.000000
vt 0.375000 0.250000
vt 0.375000 0.000000
vt 0.625000 0.250000
vt 0.375000 0.500000
vt 0.625000 0.500000
vt 0.375000 0.750000
vt 0.625000 0.750000
vt 0.375000 1.000000
vt 0.125000 0.750000
vt 0.125000 0.500000
vt 0.875000 0.500000
vt 0.625000 0.000000
vt 0.375000 0.250000
vt 0.375000 0.000000
vt 0.625000 0.250000
vt 0.375000 0.500000
vt 0.625000 0.500000
vt 0.375000 0.750000
vt 0.625000 0.750000
vt 0.375000 1.000000
vt 0.125000 0.750000
vt 0.125000 0.500000
vt 0.875000 0.500000
vt 0.625000 0.000000
vt 0.375000 0.250000
vt 0.375000 0.000000
vt 0.625000 0.250000
vt 0.375000 0.500000
vt 0.625000 0.500000
vt 0.375000 0.750000
vt 0.625000 0.750000
vt 0.375000 1.000000
vt 0.125000 0.750000
vt 0.125000 0.500000
vt 0.875000 0.500000
vt 0.625000 0.000000
vt 0.375000 0.250000
vt 0.375000 0.000000
vt 0.625000 0.250000
vt 0.375000 0.500000
vt 0.625000 0.500000
vt 0.375000 0.750000
vt 0.625000 0.750000
vt 0.375000 1.000000
vt 0.125000 0.750000
vt 0.125000 0.500000
vt 0.875000 0.500000
vt 0.625000 0.000000
vt 0.375000 0.250000
vt 0.375000 0.000000
vt 0.625000 0.250000
vt 0.375000 0.500000
vt 0.625000 0.500000
vt 0.375000 0.750000
vt 0.625000 0.750000
vt 0.375000 1.000000
vt 0.125000 0.750000
vt 0.125000 0.500000
vt 0.875000 0.500000
vt 0.625000 1.000000
vt 0.875000 0.750000
vt 0.625000 1.000000
vt 0.875000 0.750000
vt 0.625000 1.000000
vt 0.875000 0.750000
vt 0.625000 1.000000
vt 0.875000 0.750000
vt 0.625000 1.000000
vt 0.875000 0.750000
vn -1.0000 0.0000 0.0000
vn 0.0000 0.0000 -1.0000
vn 1.0000 0.0000 0.0000
vn 0.0000 0.0000 1.0000
vn 0.0000 -1.0000 0.0000
vn 0.0000 1.0000 0.0000
usemtl BoardOuterWall
s off
f 10/11/7 11/12/7 9/13/7
f 12/14/8 15/15/8 11/12/8
f 16/16/9 13/17/9 15/15/9
f 14/18/10 9/19/10 13/17/10
f 15/15/11 9/20/11 11/21/11
f 12/22/12 14/18/12 16/16/12
f 18/23/7 19/24/7 17/25/7
f 20/26/8 23/27/8 19/24/8
f 24/28/9 21/29/9 23/27/9
f 22/30/10 17/31/10 21/29/10
f 23/27/11 17/32/11 19/33/11
f 20/34/12 22/30/12 24/28/12
f 26/35/10 27/36/10 25/37/10
f 28/38/7 31/39/7 27/36/7
f 32/40/8 29/41/8 31/39/8
f 30/42/9 25/43/9 29/41/9
f 31/39/11 25/44/11 27/45/11
f 28/46/12 30/42/12 32/40/12
f 34/47/10 35/48/10 33/49/10
f 36/50/7 39/51/7 35/48/7
f 40/52/8 37/53/8 39/51/8
f 38/54/9 33/55/9 37/53/9
f 39/51/11 33/56/11 35/57/11
f 36/58/12 38/54/12 40/52/12
f 42/59/7 43/60/7 41/61/7
f 44/62/8 47/63/8 43/60/8
f 48/64/9 45/65/9 47/63/9
f 46/66/10 41/67/10 45/65/10
f 47/63/11 41/68/11 43/69/11
f 44/70/12 46/66/12 48/64/12
f 10/11/7 12/14/7 11/12/7
f 12/14/8 16/16/8 15/15/8
f 16/16/9 14/18/9 13/17/9
f 14/18/10 10/71/10 9/19/10
f 15/15/11 13/17/11 9/20/11
f 12/22/12 10/72/12 14/18/12
f 18/23/7 20/26/7 19/24/7
f 20/26/8 24/28/8 23/27/8
f 24/28/9 22/30/9 21/29/9
f 22/30/10 18/73/10 17/31/10
f 23/27/11 21/29/11 17/32/11
f 20/34/12 18/74/12 22/30/12
f 26/35/10 28/38/10 27/36/10
f 28/38/7 32/40/7 31/39/7
f 32/40/8 30/42/8 29/41/8
f 30/42/9 26/75/9 25/43/9
f 31/39/11 29/41/11 25/44/11
f 28/46/12 26/76/12 30/42/12
f 34/47/10 36/50/10 35/48/10
f 36/50/7 40/52/7 39/51/7
f 40/52/8 38/54/8 37/53/8
f 38/54/9 34/77/9 33/55/9
f 39/51/11 37/53/11 33/56/11
f 36/58/12 34/78/12 38/54/12
f 42/59/7 44/62/7 43/60/7
f 44/62/8 48/64/8 47/63/8
f 48/64/9 46/66/9 45/65/9
f 46/66/10 42/79/10 41/67/10
f 47/63/11 45/65/11 41/68/11
f 44/70/12 42/80/12 46/66/12
o Cube.007
v 17.600000 0.000000 29.999998
v 17.600000 4.000000 29.999998
v -17.600000 0.000000 30.000000
v -17.600000 4.000000 30.000000
v 17.600000 0.000000 29.599998
v 17.600000 4.000000 29.599998
v -17.600000 0.000000 29.600000
v -17.600000 4.000000 29.600000
v -17.999998 0.000000 30.000000
v -17.999998 4.000000 30.000000
v -17.999998 0.000000 -14.000000
v -17.999998 4.000000 -14.000000
v -17.599997 0.000000 30.000000
v -17.599997 4.000000 30.000000
v -17.599997 0.000000 -14.000000
v -17.599997 4.000000 -14.000000
v 17.599998 0.000000 29.999998
v 17.599998 4.000000 29.999998
v 17.600000 0.000000 -29.999996
v 17.600000 4.000000 -29.999996
v 17.999998 0.000000 29.999998
v 17.999998 4.000000 29.999998
v 18.000000 0.000000 -29.999996
v 18.000000 4.000000 -29.999996
v 9.999999 0.000000 25.199999
v 9.999999 4.000000 25.199999
v -9.999999 0.000000 25.200001
v -9.999999 4.000000 25.200001
v 9.999999 0.000000 24.799999
v 9.999999 4.000000 24.799999
v -9.999999 0.000000 24.799999
v -9.999999 4.000000 24.799999
v -9.981623 0.000000 25.201221
v -9.981623 4.000000 25.201221
v -17.901218 0.000000 17.281626
v -17.901218 4.000000 17.281626
v -9.698780 0.000000 24.918377
v -9.698780 4.000000 24.918377
v -17.618376 0.000000 16.998783
v -17.618376 4.000000 16.998783
v 9.698779 0.000000 24.918377
v 9.698779 4.000000 24.918377
v 17.618376 0.000000 16.998779
v 17.618376 4.000000 16.998779
v 9.981622 0.000000 25.201220
v 9.981622 4.000000 25.201220
v 17.901218 0.000000 17.281624
v 17.901218 4.000000 17.281624
v -15.200000 0.000000 10.000000
v -15.200000 4.000000 10.000000
v -15.199999 0.000000 -13.999996
v -15.199999 4.000000 -13.999996
v -14.799998 0.000000 10.000000
v -14.799998 4.000000 10.000000
v -14.799998 0.000000 -13.999996
v -14.799998 4.000000 -13.999996
v -15.131087 0.000000 -13.923203
v -15.131087 4.000000 -13.923203
v -9.068911 0.000000 -17.423203
v -9.068911 4.000000 -17.423203
v -14.931087 0.000000 -13.576790
v -14.931087 4.000000 -13.576790
v -8.868911 0.000000 -17.076790
v -8.868911 4.000000 -17.076790
v 17.931089 0.000000 -13.576790
v 17.931089 4.000000 -13.576790
v 11.868910 0.000000 -17.076790
v 11.868910 4.000000 -17.076790
v 18.131086 0.000000 -13.923203
v 18.131086 4.000000 -13.923203
v 12.068910 0.000000 -17.423203
v 12.068910 4.000000 -17.423203
vt 0.625000 0.000000
vt 0.375000 0.250000
vt 0.375000 0.000000
vt 0.625000 0.250000
vt 0.375000 0.500000
vt 0.625000 0.500000
vt 0.375000 0.750000
vt 0.625000 0.750000
vt 0.375000 1.000000
vt 0.125000 0.750000
vt 0.125000 0.500000
vt 0.875000 0.500000
vt 0.625000 0.000000
vt 0.375000 0.250000
vt 0.375000 0.000000
vt 0.625000 0.250000
vt 0.375000 0.500000
vt 0.625000 0.500000
vt 0.375000 0.750000
vt 0.625000 0.750000
vt 0.375000 1.000000
vt 0.125000 0.750000
vt 0.125000 0.500000
vt 0.875000 0.500000
vt 0.625000 0.000000
vt 0.375000 0.250000
vt 0.375000 0.000000
vt 0.625000 0.250000
vt 0.375000 0.500000
vt 0.625000 0.500000
vt 0.375000 0.750000
vt 0.625000 0.750000
vt 0.375000 1.000000
vt 0.125000 0.750000
vt 0.125000 0.500000
vt 0.875000 0.500000
vt 0.625000 0.000000
vt 0.375000 0.250000
vt 0.375000 0.000000
vt 0.625000 0.250000
vt 0.375000 0.500000
vt 0.625000 0.500000
vt 0.375000 0.750000
vt 0.625000 0.750000
vt 0.375000 1.000000
vt 0.125000 0.750000
vt 0.125000 0.500000
vt 0.875000 0.500000
vt 0.625000 0.000000
vt 0.375000 0.250000
vt 0.375000 0.000000
vt 0.625000 0.250000
vt 0.375000 0.500000
vt 0.625000 0.500000
vt 0.375000 0.750000
vt 0.625000 0.750000
vt 0.375000 1.000000
vt 0.125000 0.500000
vt 0.125000 0.750000
vt 0.875000 0.500000
vt 0.625000 0.000000
vt 0.375000 0.250000
vt 0.375000 0.000000
vt 0.625000 0.250000
vt 0.375000 0.500000
vt 0.625000 0.500000
vt 0.375000 0.750000
vt 0.625000 0.750000
vt 0.375000 1.000000
vt 0.125000 0.750000
vt 0.125000 0.500000
vt 0.875000 0.750000
vt 0.625000 0.000000
vt 0.375000 0.250000
vt 0.375000 0.000000
vt 0.625000 0.250000
vt 0.375000 0.500000
vt 0.625000 0.500000
vt 0.375000 0.750000
vt 0.625000 0.750000
vt 0.375000 1.000000
vt 0.125000 0.750000
vt 0.125000 0.500000
vt 0.875000 0.500000
vt 0.625000 0.000000
vt 0.375000 0.250000
vt 0.375000 0.000000
vt 0.625000 0.250000
vt 0.375000 0.500000
vt 0.625000 0.500000
vt 0.375000 0.750000
vt 0.625000 0.750000
vt 0.375000 1.000000
vt 0.125000 0.750000
vt 0.125000 0.500000
vt 0.875000 0.750000
vt 0.625000 0.000000
vt 0.375000 0.250000
vt 0.375000 0.000000
vt 0.625000 0.250000
vt 0.375000 0.500000
vt 0.625000 0.500000
vt 0.375000 0.750000
vt 0.625000 0.750000
vt 0.375000 1.000000
vt 0.125000 0.500000
vt 0.125000 0.750000
vt 0.875000 0.500000
vt 0.625000 1.000000
vt 0.875000 0.750000
vt 0.625000 1.000000
vt 0.875000 0.750000
vt 0.625000 1.000000
vt 0.875000 0.750000
vt 0.625000 1.000000
vt 0.875000 0.750000
vt 0.625000 1.000000
vt 0.875000 0.750000
vt 0.625000 1.000000
vt 0.875000 0.500000
vt 0.625000 1.000000
vt 0.875000 0.750000
vt 0.625000 1.000000
vt 0.875000 0.500000
vt 0.625000 1.000000
vt 0.875000 0.750000
vn 0.0000 0.0000 1.0000
vn -1.0000 0.0000 0.0000
vn -0.0000 0.0000 -1.0000
vn 1.0000 0.0000 0.0000
vn 0.0000 -1.0000 0.0000
vn 0.0000 1.0000 0.0000
vn -0.7071 0.0000 0.7071
vn -0.7071 0.0000 -0.7071
vn 0.7071 0.0000 -0.7071
vn 0.7071 0.0000 0.7071
vn -0.5000 0.0000 -0.8660
vn 0.8660 0.0000 -0.5000
vn 0.5000 0.0000 0.8660
vn -0.8660 0.0000 0.5000
vn -0.5000 0.0000 0.8660
vn -0.8660 0.0000 -0.5000
vn 0.5000 0.0000 -0.8660
vn 0.8660 0.0000 0.5000
usemtl BoardInnerWalls
s off
f 50/81/13 51/82/13 49/83/13
f 52/84/14 55/85/14 51/82/14
f 56/86/15 53/87/15 55/85/15
f 54/88/16 49/89/16 53/87/16
f 55/85/17 49/90/17 51/91/17
f 52/92/18 54/88/18 56/86/18
f 58/93/14 59/94/14 57/95/14
f 60/96/15 63/97/15 59/94/15
f 64/98/16 61/99/16 63/97/16
f 62/100/13 57/101/13 61/99/13
f 63/97/17 57/102/17 59/103/17
f 60/104/18 62/100/18 64/98/18
f 66/105/14 67/106/14 65/107/14
f 68/108/15 71/109/15 67/106/15
f 72/110/16 69/111/16 71/109/16
f 70/112/13 65/113/13 69/111/13
f 71/109/17 65/114/17 67/115/17
f 68/116/18 70/112/18 72/110/18
f 74/117/13 75/118/13 73/119/13
f 76/120/14 79/121/14 75/118/14
f 80/122/15 77/123/15 79/121/15
f 78/124/16 73/125/16 77/123/16
f 79/121/17 73/126/17 75/127/17
f 76/128/18 78/124/18 80/122/18
f 82/129/19 83/130/19 81/131/19
f 84/132/20 87/133/20 83/130/20
f 88/134/21 85/135/21 87/133/21
f 86/136/22 81/137/22 85/135/22
f 83/138/17 85/135/17 81/139/17
f 84/140/18 86/136/18 88/134/18
f 90/141/20 91/142/20 89/143/20
f 92/144/21 95/145/21 91/142/21
f 96/146/22 93/147/22 95/145/22
f 94/148/19 89/149/19 93/147/19
f 95/145/17 89/150/17 91/151/17
f 96/146/18 90/152/18 94/148/18
f 98/153/14 99/154/14 97/155/14
f 100/156/15 103/157/15 99/154/15
f 104/158/16 101/159/16 103/157/16
f 102/160/13 97/161/13 101/159/13
f 103/157/17 97/162/17 99/163/17
f 100/164/18 102/160/18 104/158/18
f 106/165/23 107/166/23 105/167/23
f 108/168/24 111/169/24 107/166/24
f 112/170/25 109/171/25 111/169/25
f 110/172/26 105/173/26 109/171/26
f 111/169/17 105/174/17 107/175/17
f 112/170/18 106/176/18 110/172/18
f 114/177/27 115/178/27 113/179/27
f 116/180/28 119/181/28 115/178/28
f 120/182/29 117/183/29 119/181/29
f 118/184/30 113/185/30 117/183/30
f 115/186/17 117/183/17 113/187/17
f 116/188/18 118/184/18 120/182/18
f 50/81/13 52/84/13 51/82/13
f 52/84/14 56/86/14 55/85/14
f 56/86/15 54/88/15 53/87/15
f 54/88/16 50/189/16 49/89/16
f 55/85/17 53/87/17 49/90/17
f 52/92/18 50/190/18 54/88/18
f 58/93/14 60/96/14 59/94/14
f 60/96/15 64/98/15 63/97/15
f 64/98/16 62/100/16 61/99/16
f 62/100/13 58/191/13 57/101/13
f 63/97/17 61/99/17 57/102/17
f 60/104/18 58/192/18 62/100/18
f 66/105/14 68/108/14 67/106/14
f 68/108/15 72/110/15 71/109/15
f 72/110/16 70/112/16 69/111/16
f 70/112/13 66/193/13 65/113/13
f 71/109/17 69/111/17 65/114/17
f 68/116/18 66/194/18 70/112/18
f 74/117/13 76/120/13 75/118/13
f 76/120/14 80/122/14 79/121/14
f 80/122/15 78/124/15 77/123/15
f 78/124/16 74/195/16 73/125/16
f 79/121/17 77/123/17 73/126/17
f 76/128/18 74/196/18 78/124/18
f 82/129/19 84/132/19 83/130/19
f 84/132/20 88/134/20 87/133/20
f 88/134/21 86/136/21 85/135/21
f 86/136/22 82/197/22 81/137/22
f 83/138/17 87/133/17 85/135/17
f 84/140/18 82/198/18 86/136/18
f 90/141/20 92/144/20 91/142/20
f 92/144/21 96/146/21 95/145/21
f 96/146/22 94/148/22 93/147/22
f 94/148/19 90/199/19 89/149/19
f 95/145/17 93/147/17 89/150/17
f 96/146/18 92/200/18 90/152/18
f 98/153/14 100/156/14 99/154/14
f 100/156/15 104/158/15 103/157/15
f 104/158/16 102/160/16 101/159/16
f 102/160/13 98/201/13 97/161/13
f 103/157/17 101/159/17 97/162/17
f 100/164/18 98/202/18 102/160/18
f 106/165/23 108/168/23 107/166/23
f 108/168/24 112/170/24 111/169/24
f 112/170/25 110/172/25 109/171/25
f 110/172/26 106/203/26 105/173/26
f 111/169/17 109/171/17 105/174/17
f 112/170/18 108/204/18 106/176/18
f 114/177/27 116/180/27 115/178/27
f 116/180/28 120/182/28 119/181/28
f 120/182/29 118/184/29 117/183/29
f 118/184/30 114/205/30 113/185/30
f 115/186/17 119/181/17 117/183/17
f 116/188/18 114/206/18 118/184/18
