# Blender v2.93.5 OBJ File: ''
# www.blender.org
mtllib bumpers.mtl
o Cylinder
v 0.000000 -1.500000 -1.500000
v 0.000000 1.500000 -1.500000
v 0.188000 -1.500000 -1.488172
v 0.188000 1.500000 -1.488172
v 0.373035 -1.500000 -1.452875
v 0.373035 1.500000 -1.452875
v 0.552187 -1.500000 -1.394665
v 0.552187 1.500000 -1.394665
v 0.722631 -1.500000 -1.314460
v 0.722631 1.500000 -1.314460
v 0.881678 -1.500000 -1.213526
v 0.881678 1.500000 -1.213526
v 1.026821 -1.500000 -1.093453
v 1.026821 1.500000 -1.093453
v 1.155770 -1.500000 -0.956136
v 1.155770 1.500000 -0.956136
v 1.266492 -1.500000 -0.803740
v 1.266492 1.500000 -0.803740
v 1.357241 -1.500000 -0.638669
v 1.357241 1.500000 -0.638669
v 1.426585 -1.500000 -0.463525
v 1.426585 1.500000 -0.463525
v 1.473431 -1.500000 -0.281072
v 1.473431 1.500000 -0.281072
v 1.497040 -1.500000 -0.094186
v 1.497040 1.500000 -0.094186
v 1.497040 -1.500000 0.094186
v 1.497040 1.500000 0.094186
v 1.473431 -1.500000 0.281072
v 1.473431 1.500000 0.281072
v 1.426585 -1.500000 0.463526
v 1.426585 1.500000 0.463526
v 1.357240 -1.500000 0.638669
v 1.357240 1.500000 0.638669
v 1.266492 -1.500000 0.803740
v 1.266492 1.500000 0.803740
v 1.155770 -1.500000 0.956136
v 1.155770 1.500000 0.956136
v 1.026821 -1.500000 1.093453
v 1.026821 1.500000 1.093453
v 0.881678 -1.500000 1.213526
v 0.881678 1.500000 1.213526
v 0.722631 -1.500000 1.314460
v 0.722631 1.500000 1.314460
v 0.552187 -1.500000 1.394665
v 0.552187 1.500000 1.394665
v 0.373035 -1.500000 1.452875
v 0.373035 1.500000 1.452875
v 0.188000 -1.500000 1.488172
v 0.188000 1.500000 1.488172
v -0.000000 -1.500000 1.500000
v -0.000000 1.500000 1.500000
v -0.188000 -1.500000 1.488172
v -0.188000 1.500000 1.488172
v -0.373035 -1.500000 1.452875
v -0.373035 1.500000 1.452875
v -0.552187 -1.500000 1.394665
v -0.552187 1.500000 1.394665
v -0.722631 -1.500000 1.314460
v -0.722631 1.500000 1.314460
v -0.881678 -1.500000 1.213525
v -0.881678 1.500000 1.213525
v -1.026821 -1.500000 1.093453
v -1.026821 1.500000 1.093453
v -1.155770 -1.500000 0.956136
v -1.155770 1.500000 0.956136
v -1.266492 -1.500000 0.803741
v -1.266492 1.500000 0.803741
v -1.357240 -1.500000 0.638669
v -1.357240 1.500000 0.638669
v -1.426585 -1.500000 0.463526
v -1.426585 1.500000 0.463526
v -1.473431 -1.500000 0.281072
v -1.473431 1.500000 0.281072
v -1.497040 -1.500000 0.094186
v -1.497040 1.500000 0.094186
v -1.497040 -1.500000 -0.094186
v -1.497040 1.500000 -0.094186
v -1.473431 -1.500000 -0.281072
v -1.473431 1.500000 -0.281072
v -1.426585 -1.500000 -0.463526
v -1.426585 1.500000 -0.463526
v -1.357240 -1.500000 -0.638669
v -1.357240 1.500000 -0.638669
v -1.266492 -1.500000 -0.803740
v -1.266492 1.500000 -0.803740
v -1.155770 -1.500000 -0.956136
v -1.155770 1.500000 -0.956136
v -1.026821 -1.500000 -1.093453
v -1.026821 1.500000 -1.093453
v -0.881678 -1.500000 -1.213525
v -0.881678 1.500000 -1.213525
v -0.722631 -1.500000 -1.314460
v -0.722631 1.500000 -1.314460
v -0.552187 -1.500000 -1.394665
v -0.552187 1.500000 -1.394665
v -0.373035 -1.500000 -1.452875
v -0.373035 1.500000 -1.452875
v -0.188000 -1.500000 -1.488172
v -0.188000 1.500000 -1.488172
vt 1.000000 0.750799
vt 0.980000 0.250799
vt 1.000000 0.250799
vt 0.980000 0.750799
vt 0.960000 0.250799
vt 0.960000 0.750799
vt 0.940000 0.250799
vt 0.940000 0.750799
vt 0.920000 0.250799
vt 0.920000 0.750799
vt 0.900000 0.250799
vt 0.900000 0.750799
vt 0.880000 0.250799
vt 0.880000 0.750799
vt 0.860000 0.250799
vt 0.860000 0.750799
vt 0.840000 0.250799
vt 0.840000 0.750799
vt 0.820000 0.250799
vt 0.820000 0.750799
vt 0.800000 0.250799
vt 0.800000 0.750799
vt 0.780000 0.250799
vt 0.780000 0.750799
vt 0.760000 0.250799
vt 0.760000 0.750799
vt 0.740000 0.250799
vt 0.740000 0.750799
vt 0.720000 0.250799
vt 0.720000 0.750799
vt 0.700000 0.250799
vt 0.700000 0.750799
vt 0.680000 0.250799
vt 0.680000 0.750799
vt 0.660000 0.250799
vt 0.660000 0.750799
vt 0.640000 0.250799
vt 0.640000 0.750799
vt 0.620000 0.250799
vt 0.620000 0.750799
vt 0.600000 0.250799
vt 0.600000 0.750799
vt 0.580000 0.250799
vt 0.580000 0.750799
vt 0.560000 0.250799
vt 0.560000 0.750799
vt 0.540000 0.250799
vt 0.540000 0.750799
vt 0.520000 0.250799
vt 0.520000 0.750799
vt 0.500000 0.250799
vt 0.500000 0.750799
vt 0.480000 0.250799
vt 0.480000 0.750799
vt 0.460000 0.250799
vt 0.460000 0.750799
vt 0.440000 0.250799
vt 0.440000 0.750799
vt 0.420000 0.250799
vt 0.420000 0.750799
vt 0.400000 0.250799
vt 0.400000 0.750799
vt 0.380000 0.250799
vt 0.380000 0.750799
vt 0.360000 0.250799
vt 0.360000 0.750799
vt 0.340000 0.250799
vt 0.340000 0.750799
vt 0.320000 0.250799
vt 0.320000 0.750799
vt 0.300000 0.250799
vt 0.300000 0.750799
vt 0.280000 0.250799
vt 0.280000 0.750799
vt 0.260000 0.250799
vt 0.260000 0.750799
vt 0.240000 0.250799
vt 0.240000 0.750799
vt 0.220000 0.250799
vt 0.220000 0.750799
vt 0.200000 0.250799
vt 0.200000 0.750799
vt 0.180000 0.250799
vt 0.180000 0.750799
vt 0.160000 0.250799
vt 0.160000 0.750799
vt 0.140000 0.250799
vt 0.140000 0.750799
vt 0.120000 0.250799
vt 0.120000 0.750799
vt 0.100000 0.250799
vt 0.100000 0.750799
vt 0.080000 0.250799
vt 0.080000 0.750799
vt 0.060000 0.250799
vt 0.060000 0.750799
vt 0.040000 0.250799
vt 0.403999 0.884030
vt 0.197533 0.248594
vt 0.860402 0.332334
vt 0.040000 0.750799
vt 0.020000 0.250799
vt 0.020000 0.750799
vt 0.000000 0.250799
vt 0.587551 0.722348
vt 0.663493 0.324249
vt 0.270948 0.425037
vt 0.600793 0.884030
vt 0.551986 0.893341
vt 0.502396 0.896461
vt 0.452807 0.893341
vt 0.356743 0.868676
vt 0.311785 0.847520
vt 0.269832 0.820896
vt 0.231547 0.789224
vt 0.197533 0.753003
vt 0.168328 0.712805
vt 0.144391 0.669263
vt 0.126099 0.623065
vt 0.113743 0.574938
vt 0.113743 0.426659
vt 0.107515 0.525643
vt 0.107515 0.475955
vt 0.126099 0.378532
vt 0.144391 0.332334
vt 0.168328 0.288792
vt 0.231547 0.212374
vt 0.269832 0.180702
vt 0.311785 0.154078
vt 0.356743 0.132922
vt 0.403999 0.117567
vt 0.551986 0.108257
vt 0.452807 0.108257
vt 0.502396 0.105137
vt 0.600793 0.117567
vt 0.734960 0.180702
vt 0.648049 0.132922
vt 0.693008 0.154078
vt 0.773245 0.212374
vt 0.807259 0.248594
vt 0.836464 0.288793
vt 0.878693 0.378532
vt 0.891050 0.426659
vt 0.897277 0.475955
vt 0.897277 0.525643
vt 0.891050 0.574938
vt 0.836464 0.712805
vt 0.878693 0.623065
vt 0.860402 0.669263
vt 0.807259 0.753003
vt 0.773245 0.789224
vt 0.734960 0.820896
vt 0.693008 0.847520
vt 0.648049 0.868676
vt 0.000000 0.750799
vt 0.469121 0.737309
vt 0.499201 0.739201
vt 0.529281 0.737309
vt 0.558887 0.731661
vt 0.614822 0.709515
vt 0.684125 0.652183
vt 0.640270 0.693365
vt 0.663493 0.674154
vt 0.701840 0.627800
vt 0.734950 0.544173
vt 0.716360 0.601388
vt 0.727455 0.573365
vt 0.738728 0.514271
vt 0.738728 0.484132
vt 0.734950 0.454230
vt 0.727455 0.425037
vt 0.716360 0.397014
vt 0.701840 0.370603
vt 0.684125 0.346220
vt 0.640270 0.305037
vt 0.614822 0.288888
vt 0.587551 0.276055
vt 0.558887 0.266741
vt 0.529281 0.261094
vt 0.499201 0.259201
vt 0.469121 0.261094
vt 0.439516 0.266741
vt 0.410851 0.276055
vt 0.383580 0.288888
vt 0.358133 0.305037
vt 0.334910 0.324249
vt 0.314278 0.346220
vt 0.296563 0.370603
vt 0.282043 0.397014
vt 0.263452 0.454230
vt 0.263452 0.544173
vt 0.259675 0.484132
vt 0.259675 0.514271
vt 0.270948 0.573365
vt 0.282043 0.601388
vt 0.296563 0.627800
vt 0.314278 0.652183
vt 0.334910 0.674154
vt 0.358133 0.693365
vt 0.383580 0.709515
vt 0.410851 0.722348
vt 0.439516 0.731661
vn 0.0628 0.0000 -0.9980
vn 0.1874 0.0000 -0.9823
vn 0.3090 0.0000 -0.9511
vn 0.4258 0.0000 -0.9048
vn 0.5358 0.0000 -0.8443
vn 0.6374 0.0000 -0.7705
vn 0.7290 0.0000 -0.6845
vn 0.8090 0.0000 -0.5878
vn 0.8763 0.0000 -0.4818
vn 0.9298 0.0000 -0.3681
vn 0.9686 0.0000 -0.2487
vn 0.9921 0.0000 -0.1253
vn 1.0000 0.0000 0.0000
vn 0.9921 0.0000 0.1253
vn 0.9686 0.0000 0.2487
vn 0.9298 0.0000 0.3681
vn 0.8763 0.0000 0.4818
vn 0.8090 0.0000 0.5878
vn 0.7290 0.0000 0.6845
vn 0.6374 0.0000 0.7705
vn 0.5358 0.0000 0.8443
vn 0.4258 0.0000 0.9048
vn 0.3090 0.0000 0.9511
vn 0.1874 0.0000 0.9823
vn 0.0628 0.0000 0.9980
vn -0.0628 0.0000 0.9980
vn -0.1874 0.0000 0.9823
vn -0.3090 0.0000 0.9511
vn -0.4258 0.0000 0.9048
vn -0.5358 0.0000 0.8443
vn -0.6374 0.0000 0.7705
vn -0.7290 0.0000 0.6845
vn -0.8090 0.0000 0.5878
vn -0.8763 0.0000 0.4818
vn -0.9298 0.0000 0.3681
vn -0.9686 0.0000 0.2487
vn -0.9921 0.0000 0.1253
vn -1.0000 0.0000 0.0000
vn -0.9921 0.0000 -0.1253
vn -0.9686 0.0000 -0.2487
vn -0.9298 0.0000 -0.3681
vn -0.8763 0.0000 -0.4818
vn -0.8090 0.0000 -0.5878
vn -0.7290 0.0000 -0.6845
vn -0.6374 0.0000 -0.7705
vn -0.5358 0.0000 -0.8443
vn -0.4258 0.0000 -0.9048
vn -0.3090 0.0000 -0.9511
vn 0.0000 1.0000 0.0000
vn -0.1874 0.0000 -0.9823
vn -0.0628 0.0000 -0.9980
vn 0.0000 -1.0000 0.0000
usemtl Bumper
s off
f 2/1/1 3/2/1 1/3/1
f 4/4/2 5/5/2 3/2/2
f 6/6/3 7/7/3 5/5/3
f 8/8/4 9/9/4 7/7/4
f 10/10/5 11/11/5 9/9/5
f 12/12/6 13/13/6 11/11/6
f 14/14/7 15/15/7 13/13/7
f 16/16/8 17/17/8 15/15/8
f 18/18/9 19/19/9 17/17/9
f 20/20/10 21/21/10 19/19/10
f 22/22/11 23/23/11 21/21/11
f 24/24/12 25/25/12 23/23/12
f 26/26/13 27/27/13 25/25/13
f 28/28/14 29/29/14 27/27/14
f 30/30/15 31/31/15 29/29/15
f 32/32/16 33/33/16 31/31/16
f 34/34/17 35/35/17 33/33/17
f 36/36/18 37/37/18 35/35/18
f 38/38/19 39/39/19 37/37/19
f 40/40/20 41/41/20 39/39/20
f 42/42/21 43/43/21 41/41/21
f 44/44/22 45/45/22 43/43/22
f 46/46/23 47/47/23 45/45/23
f 48/48/24 49/49/24 47/47/24
f 50/50/25 51/51/25 49/49/25
f 52/52/26 53/53/26 51/51/26
f 54/54/27 55/55/27 53/53/27
f 56/56/28 57/57/28 55/55/28
f 58/58/29 59/59/29 57/57/29
f 60/60/30 61/61/30 59/59/30
f 62/62/31 63/63/31 61/61/31
f 64/64/32 65/65/32 63/63/32
f 66/66/33 67/67/33 65/65/33
f 68/68/34 69/69/34 67/67/34
f 70/70/35 71/71/35 69/69/35
f 72/72/36 73/73/36 71/71/36
f 74/74/37 75/75/37 73/73/37
f 76/76/38 77/77/38 75/75/38
f 78/78/39 79/79/39 77/77/39
f 80/80/40 81/81/40 79/79/40
f 82/82/41 83/83/41 81/81/41
f 84/84/42 85/85/42 83/83/42
f 86/86/43 87/87/43 85/85/43
f 88/88/44 89/89/44 87/87/44
f 90/90/45 91/91/45 89/89/45
f 92/92/46 93/93/46 91/91/46
f 94/94/47 95/95/47 93/93/47
f 96/96/48 97/97/48 95/95/48
f 98/98/49 66/99/49 34/100/49
f 98/101/50 99/102/50 97/97/50
f 100/103/51 1/104/51 99/102/51
f 7/105/52 39/106/52 71/107/52
f 2/1/1 4/4/1 3/2/1
f 4/4/2 6/6/2 5/5/2
f 6/6/3 8/8/3 7/7/3
f 8/8/4 10/10/4 9/9/4
f 10/10/5 12/12/5 11/11/5
f 12/12/6 14/14/6 13/13/6
f 14/14/7 16/16/7 15/15/7
f 16/16/8 18/18/8 17/17/8
f 18/18/9 20/20/9 19/19/9
f 20/20/10 22/22/10 21/21/10
f 22/22/11 24/24/11 23/23/11
f 24/24/12 26/26/12 25/25/12
f 26/26/13 28/28/13 27/27/13
f 28/28/14 30/30/14 29/29/14
f 30/30/15 32/32/15 31/31/15
f 32/32/16 34/34/16 33/33/16
f 34/34/17 36/36/17 35/35/17
f 36/36/18 38/38/18 37/37/18
f 38/38/19 40/40/19 39/39/19
f 40/40/20 42/42/20 41/41/20
f 42/42/21 44/44/21 43/43/21
f 44/44/22 46/46/22 45/45/22
f 46/46/23 48/48/23 47/47/23
f 48/48/24 50/50/24 49/49/24
f 50/50/25 52/52/25 51/51/25
f 52/52/26 54/54/26 53/53/26
f 54/54/27 56/56/27 55/55/27
f 56/56/28 58/58/28 57/57/28
f 58/58/29 60/60/29 59/59/29
f 60/60/30 62/62/30 61/61/30
f 62/62/31 64/64/31 63/63/31
f 64/64/32 66/66/32 65/65/32
f 66/66/33 68/68/33 67/67/33
f 68/68/34 70/70/34 69/69/34
f 70/70/35 72/72/35 71/71/35
f 72/72/36 74/74/36 73/73/36
f 74/74/37 76/76/37 75/75/37
f 76/76/38 78/78/38 77/77/38
f 78/78/39 80/80/39 79/79/39
f 80/80/40 82/82/40 81/81/40
f 82/82/41 84/84/41 83/83/41
f 84/84/42 86/86/42 85/85/42
f 86/86/43 88/88/43 87/87/43
f 88/88/44 90/90/44 89/89/44
f 90/90/45 92/92/45 91/91/45
f 92/92/46 94/94/46 93/93/46
f 94/94/47 96/96/47 95/95/47
f 96/96/48 98/101/48 97/97/48
f 6/108/49 4/109/49 2/110/49
f 2/110/49 100/111/49 98/98/49
f 98/98/49 96/112/49 94/113/49
f 94/113/49 92/114/49 90/115/49
f 90/115/49 88/116/49 86/117/49
f 86/117/49 84/118/49 82/119/49
f 82/119/49 80/120/49 74/121/49
f 80/120/49 78/122/49 74/121/49
f 78/122/49 76/123/49 74/121/49
f 74/121/49 72/124/49 66/99/49
f 72/124/49 70/125/49 66/99/49
f 70/125/49 68/126/49 66/99/49
f 66/99/49 64/127/49 62/128/49
f 62/128/49 60/129/49 66/99/49
f 60/129/49 58/130/49 66/99/49
f 58/130/49 56/131/49 50/132/49
f 56/131/49 54/133/49 50/132/49
f 54/133/49 52/134/49 50/132/49
f 50/132/49 48/135/49 42/136/49
f 48/135/49 46/137/49 42/136/49
f 46/137/49 44/138/49 42/136/49
f 42/136/49 40/139/49 34/100/49
f 40/139/49 38/140/49 34/100/49
f 38/140/49 36/141/49 34/100/49
f 34/100/49 32/142/49 30/143/49
f 30/143/49 28/144/49 26/145/49
f 26/145/49 24/146/49 18/147/49
f 24/146/49 22/148/49 18/147/49
f 22/148/49 20/149/49 18/147/49
f 18/147/49 16/150/49 14/151/49
f 14/151/49 12/152/49 10/153/49
f 10/153/49 8/154/49 6/108/49
f 6/108/49 2/110/49 10/153/49
f 2/110/49 98/98/49 10/153/49
f 98/98/49 94/113/49 82/119/49
f 94/113/49 90/115/49 82/119/49
f 90/115/49 86/117/49 82/119/49
f 34/100/49 30/143/49 18/147/49
f 30/143/49 26/145/49 18/147/49
f 18/147/49 14/151/49 10/153/49
f 82/119/49 74/121/49 66/99/49
f 66/99/49 58/130/49 34/100/49
f 58/130/49 50/132/49 34/100/49
f 50/132/49 42/136/49 34/100/49
f 18/147/49 10/153/49 98/98/49
f 98/98/49 82/119/49 66/99/49
f 34/100/49 18/147/49 98/98/49
f 98/101/50 100/103/50 99/102/50
f 100/103/51 2/155/51 1/104/51
f 99/156/52 1/157/52 7/105/52
f 1/157/52 3/158/52 7/105/52
f 3/158/52 5/159/52 7/105/52
f 7/105/52 9/160/52 15/161/52
f 9/160/52 11/162/52 15/161/52
f 11/162/52 13/163/52 15/161/52
f 15/161/52 17/164/52 23/165/52
f 17/164/52 19/166/52 23/165/52
f 19/166/52 21/167/52 23/165/52
f 23/165/52 25/168/52 27/169/52
f 27/169/52 29/170/52 23/165/52
f 29/170/52 31/171/52 23/165/52
f 31/171/52 33/172/52 39/106/52
f 33/172/52 35/173/52 39/106/52
f 35/173/52 37/174/52 39/106/52
f 39/106/52 41/175/52 43/176/52
f 43/176/52 45/177/52 39/106/52
f 45/177/52 47/178/52 39/106/52
f 47/178/52 49/179/52 51/180/52
f 51/180/52 53/181/52 55/182/52
f 55/182/52 57/183/52 59/184/52
f 59/184/52 61/185/52 63/186/52
f 63/186/52 65/187/52 71/107/52
f 65/187/52 67/188/52 71/107/52
f 67/188/52 69/189/52 71/107/52
f 71/107/52 73/190/52 79/191/52
f 73/190/52 75/192/52 79/191/52
f 75/192/52 77/193/52 79/191/52
f 79/191/52 81/194/52 83/195/52
f 83/195/52 85/196/52 79/191/52
f 85/196/52 87/197/52 79/191/52
f 87/197/52 89/198/52 91/199/52
f 91/199/52 93/200/52 95/201/52
f 95/201/52 97/202/52 7/105/52
f 97/202/52 99/156/52 7/105/52
f 47/178/52 51/180/52 39/106/52
f 51/180/52 55/182/52 39/106/52
f 55/182/52 59/184/52 63/186/52
f 87/197/52 91/199/52 7/105/52
f 91/199/52 95/201/52 7/105/52
f 7/105/52 15/161/52 23/165/52
f 23/165/52 31/171/52 7/105/52
f 31/171/52 39/106/52 7/105/52
f 55/182/52 63/186/52 39/106/52
f 63/186/52 71/107/52 39/106/52
f 71/107/52 79/191/52 87/197/52
f 71/107/52 87/197/52 7/105/52
