# Blender v2.93.4 OBJ File: ''
# www.blender.org
o Plane
v -1.000000 -0.000000 1.750000
v 1.000000 -0.000000 1.750000
v 1.000000 0.000000 -1.750000
v -1.000000 0.000000 -1.750000
v -1.250000 0.000000 -1.750000
v -1.250000 -0.000000 1.750000
v -1.250000 0.250000 1.750000
v -1.250000 0.250000 -1.750000
v 1.000000 0.000000 -1.750000
v -1.000000 0.000000 -1.750000
v 1.000000 0.250000 -1.750000
v -1.000000 0.250000 -1.750000
v 1.250000 -0.000000 2.000000
v 1.250000 -0.000000 1.750000
v 1.250000 0.250000 1.750000
v 1.250000 0.250000 2.000000
v 1.250000 0.000000 -2.000000
v 1.000000 0.000000 -2.000000
v 1.000000 0.250000 -2.000000
v 1.250000 0.250000 -2.000000
v -1.250000 -0.000000 2.000000
v -1.000000 -0.000000 2.000000
v -1.000000 0.250000 2.000000
v -1.250000 0.250000 2.000000
v 1.250000 0.000000 -1.750000
v 1.250000 0.250000 -1.750000
v 1.000000 -0.000000 2.000000
v 1.000000 0.250000 2.000000
v -1.250000 0.000000 -2.000000
v -1.250000 0.000000 -1.750000
v -1.250000 0.250000 -1.750000
v -1.250000 0.250000 -2.000000
v -1.000000 0.000000 -2.000000
v -1.000000 0.250000 -2.000000
v 1.000000 0.250000 1.750000
v -1.000000 0.250000 1.750000
v 1.000000 0.250000 -1.750000
v 1.250000 0.250000 -1.750000
v -1.000000 0.250000 -1.750000
v 1.250000 0.000000 -1.750000
v -1.000000 0.000000 -1.750000
v -1.250000 0.000000 -1.750000
v 1.250000 0.000000 -1.750000
v 1.000000 0.000000 -1.750000
v -1.250000 -0.000000 1.750000
v -1.000000 -0.000000 1.750000
v 1.000000 -0.000000 1.750000
v 1.250000 -0.000000 1.750000
v 1.000000 -0.000000 1.750000
v 1.000000 0.000000 -1.750000
v -1.000000 0.000000 -1.750000
v -1.000000 -0.000000 1.750000
vt 0.744365 0.748066
vt 0.213607 0.267519
vt 0.763121 0.241877
vt 0.851860 0.000098
vt 0.133326 0.101882
vt 0.092221 0.017073
vt 0.202105 0.736563
vt 0.211267 0.268165
vt 0.138008 0.191309
vt 0.873165 0.995969
vt 0.867646 0.898202
vt 0.931195 0.951729
vt 0.000098 0.878022
vt 0.104043 0.909571
vt 0.057809 0.974251
vt 0.968616 0.120291
vt 0.858259 0.092754
vt 0.903710 0.024677
vt 0.109619 0.999902
vt 0.829371 0.905134
vt 0.879975 0.830480
vt 0.968616 0.854652
vt 0.875057 0.156914
vt 0.090729 0.017781
vt 0.097090 0.111629
vt 0.034375 0.062102
vt 0.000126 0.165297
vt 0.092592 0.845911
vt 0.824944 0.163968
vt 0.836598 0.826959
vt 0.143541 0.841110
vt 0.090907 0.189469
vt 0.136968 0.920512
vt 0.135581 0.920190
vt 0.145081 0.841691
vt 0.139828 0.190270
vt 0.131928 0.102284
vt 0.822988 0.083344
vt 0.108234 0.999407
vt 0.204450 0.736977
vt 0.034375 0.062102
vt 0.000098 0.878022
vt 0.000126 0.165297
vt 0.968616 0.120291
vt 0.931195 0.951729
vt 0.968616 0.854652
vt 0.109619 0.999902
vt 0.851860 0.000098
vt 0.057809 0.974251
vt 0.903710 0.024677
vt 0.873165 0.995969
vt 0.092221 0.017073
vn 0.0000 1.0000 0.0000
vn -1.0000 0.0000 0.0000
vn 0.0000 0.0000 1.0000
vn 1.0000 0.0000 0.0000
vn 0.0000 0.0000 -1.0000
vn 0.0000 -1.0000 -0.0000
s 1
f 2/1/1 4/2/1 1/3/1
f 6/4/2 8/5/2 5/6/2
f 4/2/3 9/7/3 10/8/3
f 9/7/3 12/9/3 10/8/3
f 14/10/4 16/11/4 13/12/4
f 18/13/5 20/14/5 17/15/5
f 22/16/3 24/17/3 21/18/3
f 25/19/4 15/20/4 14/10/4
f 13/12/3 28/21/3 27/22/3
f 27/22/3 23/23/3 22/16/3
f 30/24/2 32/25/2 29/26/2
f 33/27/5 19/28/5 18/13/5
f 36/29/1 28/21/1 35/30/1
f 11/31/1 34/32/1 12/9/1
f 11/31/3 26/33/3 38/34/3
f 28/21/1 15/20/1 35/30/1
f 11/31/1 20/14/1 19/28/1
f 35/30/1 26/33/1 37/35/1
f 39/36/3 31/37/3 8/5/3
f 36/29/1 24/17/1 23/23/1
f 39/36/1 7/38/1 36/29/1
f 34/32/1 31/37/1 12/9/1
f 4/2/4 36/29/4 1/3/4
f 25/19/3 38/34/3 26/33/3
f 29/26/5 34/32/5 33/27/5
f 4/2/3 12/9/3 39/36/3
f 21/18/2 7/38/2 6/4/2
f 1/3/5 35/30/5 2/1/5
f 17/15/4 38/34/4 40/39/4
f 9/7/3 37/35/3 11/31/3
f 30/24/3 8/5/3 31/37/3
f 2/1/2 37/35/2 3/40/2
f 33/27/6 42/41/6 29/26/6
f 17/15/6 44/42/6 18/13/6
f 18/13/6 41/43/6 33/27/6
f 21/18/6 46/44/6 22/16/6
f 27/22/6 48/45/6 13/12/6
f 22/16/6 47/46/6 27/22/6
f 14/10/6 50/47/6 25/19/6
f 5/6/6 52/48/6 6/4/6
f 2/1/1 3/40/1 4/2/1
f 6/4/2 7/38/2 8/5/2
f 4/2/3 3/40/3 9/7/3
f 9/7/3 11/31/3 12/9/3
f 14/10/4 15/20/4 16/11/4
f 18/13/5 19/28/5 20/14/5
f 22/16/3 23/23/3 24/17/3
f 25/19/4 26/33/4 15/20/4
f 13/12/3 16/11/3 28/21/3
f 27/22/3 28/21/3 23/23/3
f 30/24/2 31/37/2 32/25/2
f 33/27/5 34/32/5 19/28/5
f 36/29/1 23/23/1 28/21/1
f 11/31/1 19/28/1 34/32/1
f 11/31/3 37/35/3 26/33/3
f 28/21/1 16/11/1 15/20/1
f 11/31/1 38/34/1 20/14/1
f 35/30/1 15/20/1 26/33/1
f 39/36/3 12/9/3 31/37/3
f 36/29/1 7/38/1 24/17/1
f 39/36/1 8/5/1 7/38/1
f 34/32/1 32/25/1 31/37/1
f 4/2/4 39/36/4 36/29/4
f 25/19/3 40/39/3 38/34/3
f 29/26/5 32/25/5 34/32/5
f 4/2/3 10/8/3 12/9/3
f 21/18/2 24/17/2 7/38/2
f 1/3/5 36/29/5 35/30/5
f 17/15/4 20/14/4 38/34/4
f 9/7/3 3/40/3 37/35/3
f 30/24/3 5/6/3 8/5/3
f 2/1/2 35/30/2 37/35/2
f 33/27/6 41/43/6 42/41/6
f 17/15/6 43/49/6 44/42/6
f 18/13/6 44/42/6 41/43/6
f 21/18/6 45/50/6 46/44/6
f 27/22/6 47/46/6 48/45/6
f 22/16/6 46/44/6 47/46/6
f 14/10/6 49/51/6 50/47/6
f 5/6/6 51/52/6 52/48/6
