# Blender v2.93.4 OBJ File: ''
# www.blender.org
o Cube
v 1.000000 1.000000 -1.000000
v 1.000000 -1.000000 -1.000000
v 1.000000 1.000000 1.000000
v 1.000000 -1.000000 1.000000
v -1.000000 1.000000 -1.000000
v -1.000000 -1.000000 -1.000000
v -1.000000 1.000000 1.000000
v -1.000000 -1.000000 1.000000
v -1.000000 -1.000000 0.409287
v 1.000000 1.000000 0.409287
v -1.000000 1.000000 0.409287
v 1.000000 -1.000000 0.409287
v -1.000000 1.000000 -0.391690
v 1.000000 -1.000000 -0.391690
v -1.000000 -1.000000 -0.391690
v 1.000000 1.000000 -0.391690
v -0.360656 -1.000000 -1.000000
v -0.360656 1.000000 1.000000
v -0.360656 -1.000000 1.000000
v -0.360656 1.000000 -1.000000
v -0.360656 -1.000000 0.409287
v -0.360656 1.000000 0.409287
v -0.360656 1.000000 -0.391690
v -0.360656 -1.000000 -0.391690
v 0.355361 -1.000000 1.000000
v 0.355361 1.000000 -1.000000
v 0.355361 1.000000 0.409287
v 0.355361 1.000000 -0.391690
v 0.355361 -1.000000 -1.000000
v 0.355361 1.000000 1.000000
v 0.355361 -1.000000 0.409287
v 0.355361 -1.000000 -0.391690
v -0.360656 0.335615 -0.391690
v -0.360656 0.335615 0.409287
v 0.355361 0.335615 0.409287
v 0.355361 0.335615 -0.391690
vt 0.875000 0.676161
vt 0.795082 0.750000
vt 0.795082 0.676161
vt 0.625000 0.920082
vt 0.375000 1.000000
vt 0.375000 0.920082
vt 0.625000 0.173961
vt 0.375000 0.250000
vt 0.375000 0.173961
vt 0.375000 0.676161
vt 0.294420 0.750000
vt 0.294420 0.676161
vt 0.625000 0.676161
vt 0.375000 0.750000
vt 0.625000 0.419420
vt 0.375000 0.500000
vt 0.375000 0.419420
vt 0.625000 0.576039
vt 0.375000 0.576039
vt 0.294420 0.576039
vt 0.625000 0.000000
vt 0.375000 0.073839
vt 0.375000 0.000000
vt 0.875000 0.576039
vt 0.795082 0.576039
vt 0.875000 0.500000
vt 0.795082 0.500000
vt 0.294420 0.500000
vt 0.625000 0.500000
vt 0.625000 0.073839
vt 0.204918 0.500000
vt 0.125000 0.576039
vt 0.125000 0.500000
vt 0.705580 0.576039
vt 0.705580 0.500000
vt 0.795082 0.576039
vt 0.204918 0.576039
vt 0.125000 0.676161
vt 0.625000 0.250000
vt 0.375000 0.329918
vt 0.204918 0.676161
vt 0.125000 0.750000
vt 0.625000 0.830580
vt 0.375000 0.830580
vt 0.705580 0.676161
vt 0.705580 0.750000
vt 0.625000 0.750000
vt 0.625000 0.329918
vt 0.204918 0.750000
vt 0.705580 0.676161
vt 0.705580 0.576039
vt 0.795082 0.676161
vt 0.875000 0.750000
vt 0.625000 1.000000
vn 0.0000 1.0000 0.0000
vn 0.0000 0.0000 1.0000
vn -1.0000 0.0000 0.0000
vn 0.0000 -1.0000 -0.0000
vn 1.0000 0.0000 0.0000
vn 0.0000 0.0000 -1.0000
s off
f 11/1/1 18/2/1 22/3/1
f 18/4/2 8/5/2 19/6/2
f 13/7/3 6/8/3 15/9/3
f 12/10/4 25/11/4 31/12/4
f 10/13/5 4/14/5 12/10/5
f 26/15/6 2/16/6 29/17/6
f 16/18/5 12/10/5 14/19/5
f 14/19/4 31/12/4 32/20/4
f 7/21/3 9/22/3 8/23/3
f 13/24/1 22/3/1 23/25/1
f 5/26/1 23/25/1 20/27/1
f 2/16/4 32/20/4 29/28/4
f 1/29/5 14/19/5 2/16/5
f 11/30/3 15/9/3 9/22/3
f 17/31/4 15/32/4 6/33/4
f 20/27/1 28/34/1 26/35/1
f 22/3/5 33/36/5 23/25/5
f 24/37/4 9/38/4 15/32/4
f 5/39/6 17/40/6 6/8/6
f 21/41/4 8/42/4 9/38/4
f 30/43/2 19/6/2 25/44/2
f 27/45/1 18/2/1 30/46/1
f 27/45/1 3/47/1 10/13/1
f 3/47/2 25/44/2 4/14/2
f 28/34/1 10/13/1 16/18/1
f 26/35/1 16/18/1 1/29/1
f 29/28/4 24/37/4 17/31/4
f 32/20/4 21/41/4 24/37/4
f 20/48/6 29/17/6 17/40/6
f 31/12/4 19/49/4 21/41/4
f 33/36/1 35/50/1 36/51/1
f 23/25/2 36/51/2 28/34/2
f 28/34/3 35/50/3 27/45/3
f 27/45/6 34/52/6 22/3/6
f 11/1/1 7/53/1 18/2/1
f 18/4/2 7/54/2 8/5/2
f 13/7/3 5/39/3 6/8/3
f 12/10/4 4/14/4 25/11/4
f 10/13/5 3/47/5 4/14/5
f 26/15/6 1/29/6 2/16/6
f 16/18/5 10/13/5 12/10/5
f 14/19/4 12/10/4 31/12/4
f 7/21/3 11/30/3 9/22/3
f 13/24/1 11/1/1 22/3/1
f 5/26/1 13/24/1 23/25/1
f 2/16/4 14/19/4 32/20/4
f 1/29/5 16/18/5 14/19/5
f 11/30/3 13/7/3 15/9/3
f 17/31/4 24/37/4 15/32/4
f 20/27/1 23/25/1 28/34/1
f 22/3/5 34/52/5 33/36/5
f 24/37/4 21/41/4 9/38/4
f 5/39/6 20/48/6 17/40/6
f 21/41/4 19/49/4 8/42/4
f 30/43/2 18/4/2 19/6/2
f 27/45/1 22/3/1 18/2/1
f 27/45/1 30/46/1 3/47/1
f 3/47/2 30/43/2 25/44/2
f 28/34/1 27/45/1 10/13/1
f 26/35/1 28/34/1 16/18/1
f 29/28/4 32/20/4 24/37/4
f 32/20/4 31/12/4 21/41/4
f 20/48/6 26/15/6 29/17/6
f 31/12/4 25/11/4 19/49/4
f 33/36/1 34/52/1 35/50/1
f 23/25/2 33/36/2 36/51/2
f 28/34/3 36/51/3 35/50/3
f 27/45/6 35/50/6 34/52/6
